<?xml version="1.0" encoding="UTF-8"?>
<svg xmlns="http://www.w3.org/2000/svg" fill="none" width="350" height="401" viewBox="0 0 350 401">
  <g fill="#3B8E46">
    <path d="M109.848 330.288C122.691 319.911 126.314 307.308 126.557 302.197C122.012 299.856 109.34 296.787 93.9318 302.72C78.3344 308.726 76.3235 323.79 77.2482 330.655C82.7321 334.89 96.848 340.793 109.848 330.288Z"></path>
    <path d="M126.226 303.197C126.449 303.068 126.525 302.782 126.397 302.559L126.163 302.155C126.034 301.932 125.749 301.855 125.526 301.984L69.7601 334.181L70.4601 335.393L126.226 303.197Z"></path>
    <path d="M133.507 260.587C148.739 243.102 150.677 224.787 149.767 217.659C142.909 215.53 124.634 214.376 104.771 226.339C84.663 238.45 85.5554 259.775 88.5087 269.045C97.1261 273.565 118.089 278.286 133.507 260.587Z"></path>
    <path d="M149.552 219.123C149.829 218.89 149.866 218.477 149.633 218.199L149.212 217.697C148.979 217.42 148.566 217.384 148.288 217.617L79.0118 275.747L80.2755 277.253L149.552 219.123Z"></path>
    <path d="M160.171 202.732C180.46 195.769 190.484 181.993 193.051 175.862C188.542 170.984 174.436 161.607 152.989 162.004C131.279 162.406 122.131 179.903 120.209 188.695C125.022 196.301 139.632 209.779 160.171 202.732Z"></path>
    <path d="M192.203 176.935C192.532 176.877 192.752 176.563 192.694 176.233L192.589 175.636C192.531 175.306 192.216 175.086 191.887 175.144L109.501 189.671L109.817 191.462L192.203 176.935Z"></path>
    <path d="M31.5189 365.691C19.5336 351.932 18.0087 337.521 18.7246 331.912C24.1211 330.236 38.5009 329.328 54.1314 338.742C69.9538 348.272 69.2515 365.052 66.9276 372.346C60.1468 375.903 43.6515 379.618 31.5189 365.691Z"></path>
    <path d="M18.8936 333.063C18.6755 332.88 18.647 332.555 18.8301 332.337L19.1615 331.942C19.3446 331.724 19.6698 331.695 19.888 331.878L74.4006 377.62L73.4062 378.805L18.8936 333.063Z"></path>
    <path d="M26.2778 281.016C14.3057 261.139 15.5785 242.753 17.7138 235.887C24.8422 234.98 43.0517 237.018 60.5481 252.26C78.2593 267.689 73.6742 288.549 69.1531 297.171C59.8755 300.127 38.3968 301.137 26.2778 281.016Z"></path>
    <path d="M17.6711 237.366C17.4383 237.089 17.4745 236.675 17.7519 236.442L18.2543 236.021C18.5317 235.788 18.9453 235.824 19.1781 236.102L77.3475 305.425L75.8405 306.69L17.6711 237.366Z"></path>
    <path d="M39.4674 194.01C26.4978 172.477 27.8766 152.559 30.1898 145.121C37.9122 144.138 57.6391 146.346 76.5934 162.858C95.7805 179.573 90.8133 202.171 85.9155 211.511C75.8648 214.714 52.5963 215.808 39.4674 194.01Z"></path>
    <path d="M30.1436 146.723C29.8914 146.423 29.9306 145.975 30.2311 145.723L30.7754 145.266C31.0759 145.014 31.524 145.053 31.7762 145.354L94.7927 220.454L93.1601 221.824L30.1436 146.723Z"></path>
    <path d="M101.651 136.41C92.5998 121.383 93.562 107.483 95.1763 102.291C100.566 101.606 114.333 103.147 127.56 114.67C140.951 126.335 137.484 142.106 134.066 148.624C127.052 150.859 110.813 151.623 101.651 136.41Z"></path>
    <path d="M95.1441 103.41C94.9681 103.2 94.9954 102.888 95.2052 102.712L95.585 102.393C95.7947 102.217 96.1074 102.244 96.2834 102.454L140.261 154.865L139.122 155.821L95.1441 103.41Z"></path>
    <path d="M140.209 98.5676C136.843 81.3503 142.502 68.6176 145.794 64.2917C151.093 65.4906 163.503 71.6471 171.991 86.9996C180.585 102.541 171.933 116.175 166.492 121.131C159.136 120.833 143.616 115.996 140.209 98.5676Z"></path>
    <path d="M145.381 65.3318C145.288 65.0745 145.42 64.79 145.677 64.6963L146.143 64.5268C146.401 64.4331 146.685 64.5658 146.779 64.8231L170.179 129.114L168.781 129.623L145.381 65.3318Z"></path>
    <path d="M176.505 59.5243C180.126 36.5069 192.972 23.1858 199.046 19.2823C205.115 23.1858 217.807 36.5069 221.427 59.5243C225.093 82.8243 208.101 95.911 199.059 99.6249C190.014 95.911 172.84 82.8243 176.505 59.5243Z"></path>
    <path d="M198.059 20.3929C198.059 20.0292 198.353 19.7344 198.717 19.7344H199.376C199.739 19.7344 200.034 20.0292 200.034 20.3929V111.264H198.059V20.3929Z"></path>
    <path d="M237.791 38.1818C249.066 17.7909 265.693 9.66679 272.736 8.07629C277.104 13.8199 284.474 30.6785 280.004 53.5461C275.479 76.6945 255.037 83.1807 245.269 83.5778C238.04 76.9943 226.378 58.8231 237.791 38.1818Z"></path>
    <path d="M271.428 8.78202C271.553 8.44028 271.93 8.26408 272.272 8.38846L272.891 8.61367C273.233 8.73806 273.409 9.11592 273.285 9.45766L242.205 94.8482L240.349 94.1726L271.428 8.78202Z"></path>
    <path d="M308.739 69.5812C331.757 73.2019 345.078 86.048 348.981 92.1223C345.078 98.191 331.757 110.883 308.739 114.503C285.439 118.169 272.352 101.177 268.638 92.1346C272.352 83.0897 285.439 65.916 308.739 69.5812Z"></path>
    <path d="M347.871 91.1345C348.234 91.1345 348.529 91.4293 348.529 91.793V92.4515C348.529 92.8151 348.234 93.1099 347.871 93.1099H257V91.1345H347.871Z"></path>
    <path d="M187.444 168.181C204.525 171.52 217.156 165.907 221.448 162.641C220.258 157.384 214.151 145.073 198.92 136.651C183.503 128.127 169.977 136.709 165.06 142.107C165.356 149.405 170.154 164.802 187.444 168.181Z"></path>
    <path d="M220.416 163.05C220.671 163.143 220.953 163.012 221.046 162.756L221.215 162.294C221.307 162.039 221.176 161.757 220.921 161.664L157.14 138.449L156.635 139.836L220.416 163.05Z"></path>
    <path d="M234.847 138.912C249.755 147.891 263.545 146.937 268.695 145.335C269.375 139.989 267.846 126.331 256.415 113.208C244.843 99.9246 229.197 103.363 222.73 106.754C220.513 113.713 219.755 129.822 234.847 138.912Z"></path>
    <path d="M267.585 145.367C267.793 145.542 268.103 145.515 268.278 145.306L268.594 144.93C268.769 144.722 268.742 144.411 268.534 144.237L216.539 100.608L215.591 101.739L267.585 145.367Z"></path>
  </g>
  <path stroke="#3D9448" stroke-width="5" d="M75.5001 400.076C67.1667 344.076 68.7001 215.576 141.5 149.576C167.5 126.409 231.4 82.8758 279 94.0758"></path>
</svg>
