<?xml version="1.0" encoding="UTF-8"?>
<svg xmlns="http://www.w3.org/2000/svg" fill="none" x="0px" y="0px" viewBox="0 0 332.7 392" style="enable-background:new 0 0 332.7 392;">
  <g>
    <path fill="#3B8E46" d="M239.1,322.2c-12.8-10.4-16.5-23-16.7-28.1c4.5-2.3,17.2-5.4,32.6,0.5c15.6,6,17.6,21.1,16.7,27.9 C266.2,326.8,252.1,332.7,239.1,322.2z"></path>
    <path fill="#3B8E46" d="M222.7,295.1c-0.2-0.1-0.3-0.4-0.2-0.6l0.2-0.4c0.1-0.2,0.4-0.3,0.6-0.2l55.8,32.2l-0.7,1.2L222.7,295.1z"></path>
    <path fill="#3B8E46" d="M215.4,252.5c-15.2-17.5-17.2-35.8-16.3-42.9c6.9-2.1,25.1-3.3,45,8.7c20.1,12.1,19.2,33.4,16.3,42.7 C251.8,265.5,230.8,270.2,215.4,252.5z"></path>
    <path fill="#3B8E46" d="M199.4,211c-0.3-0.2-0.3-0.6-0.1-0.9l0.4-0.5c0.2-0.3,0.6-0.3,0.9-0.1l69.3,58.1l-1.3,1.5L199.4,211z"></path>
    <path fill="#3B8E46" d="M188.7,194.7c-20.3-7-30.3-20.7-32.9-26.9c4.5-4.9,18.6-14.3,40.1-13.9c21.7,0.4,30.9,17.9,32.8,26.7 C223.9,188.2,209.3,201.7,188.7,194.7z"></path>
    <path fill="#3B8E46" d="M156.7,168.9c-0.3-0.1-0.5-0.4-0.5-0.7l0.1-0.6c0.1-0.3,0.4-0.6,0.7-0.5l82.4,14.5l-0.3,1.8L156.7,168.9z"></path>
    <path fill="#3B8E46" d="M317.4,357.6c12-13.8,13.5-28.2,12.8-33.8c-5.4-1.7-19.8-2.6-35.4,6.8c-15.8,9.5-15.1,26.3-12.8,33.6 C288.8,367.8,305.3,371.5,317.4,357.6z"></path>
    <path fill="#3B8E46" d="M330,325c0.2-0.2,0.2-0.5,0.1-0.7l-0.3-0.4c-0.2-0.2-0.5-0.2-0.7-0.1l-54.5,45.7l1,1.2L330,325z"></path>
    <path fill="#3B8E46" d="M322.6,272.9c12-19.9,10.7-38.3,8.6-45.1c-7.1-0.9-25.3,1.1-42.8,16.4c-17.7,15.4-13.1,36.3-8.6,44.9 C289,292.1,310.5,293.1,322.6,272.9z"></path>
    <path fill="#3B8E46" d="M331.2,229.3c0.2-0.3,0.2-0.7-0.1-0.9l-0.5-0.4c-0.3-0.2-0.7-0.2-0.9,0.1l-58.1,69.2l1.5,1.3L331.2,229.3z"></path>
    <path fill="#3B8E46" d="M309.5,185.9c13-21.5,11.6-41.5,9.3-48.9c-7.7-1-27.4,1.2-46.4,17.7c-19.2,16.7-14.2,39.3-9.3,48.7 C273.1,206.6,296.3,207.7,309.5,185.9z"></path>
    <path fill="#3B8E46" d="M318.8,138.6c0.3-0.3,0.2-0.7-0.1-1l-0.5-0.5c-0.3-0.3-0.7-0.2-1,0.1l-63,75.1l1.6,1.4L318.8,138.6z"></path>
    <path fill="#3B8E46" d="M247.3,128.3c9.1-15,8.1-28.9,6.5-34.1c-5.4-0.7-19.2,0.9-32.4,12.4c-13.4,11.7-9.9,27.4-6.5,34 C221.9,142.8,238.1,143.5,247.3,128.3z"></path>
    <path fill="#3B8E46" d="M253.8,95.3c0.2-0.2,0.1-0.5-0.1-0.7l-0.4-0.3c-0.2-0.2-0.5-0.1-0.7,0.1l-44,52.4l1.1,1L253.8,95.3z"></path>
    <path fill="#3B8E46" d="M208.7,90.5c3.4-17.2-2.3-29.9-5.6-34.3c-5.3,1.2-17.7,7.4-26.2,22.7c-8.6,15.5,0.1,29.2,5.5,34.1 C189.8,112.8,205.3,107.9,208.7,90.5z"></path>
    <path fill="#3B8E46" d="M203.5,57.3c0.1-0.3,0-0.5-0.3-0.6l-0.5-0.2c-0.3-0.1-0.5,0-0.6,0.3l-23.4,64.3l1.4,0.5L203.5,57.3z"></path>
    <path fill="#3B8E46" d="M172.4,51.4c-3.6-23-16.5-36.3-22.5-40.2c-6.1,3.9-18.8,17.2-22.4,40.2c-3.7,23.3,13.3,36.4,22.4,40.1 C158.9,87.8,176.1,74.7,172.4,51.4z"></path>
    <path fill="#3B8E46" d="M150.9,12.3c0-0.4-0.3-0.7-0.7-0.7h-0.7c-0.4,0-0.7,0.3-0.7,0.7v90.9h2L150.9,12.3L150.9,12.3z"></path>
    <path fill="#3B8E46" d="M111.1,30.1C99.9,9.7,83.2,1.6,76.2,0c-4.4,5.7-11.7,22.6-7.3,45.5c4.5,23.1,25,29.6,34.7,30 C110.9,68.9,122.5,50.7,111.1,30.1z"></path>
    <path fill="#3B8E46" d="M77.5,0.7c-0.1-0.3-0.5-0.5-0.8-0.4l-0.6,0.2c-0.3,0.1-0.5,0.5-0.4,0.8l31.1,85.4l1.9-0.7L77.5,0.7z"></path>
    <path fill="#3B8E46" d="M40.2,61.5C17.2,65.1,3.9,78,0,84c3.9,6.1,17.2,18.8,40.2,22.4c23.3,3.7,36.4-13.3,40.1-22.4 C76.6,75,63.5,57.8,40.2,61.5z"></path>
    <path fill="#3B8E46" d="M1,83.1c-0.4,0-0.7,0.3-0.7,0.7v0.7c0,0.4,0.3,0.7,0.7,0.7h90.9v-2L1,83.1L1,83.1z"></path>
    <path fill="#3B8E46" d="M161.5,160.1c-17.1,3.3-29.7-2.3-34-5.5c1.2-5.3,7.3-17.6,22.5-26c15.4-8.5,28.9,0.1,33.9,5.5 C183.6,141.3,178.8,156.7,161.5,160.1z"></path>
    <path fill="#3B8E46" d="M128.5,155c-0.3,0.1-0.5,0-0.6-0.3l-0.2-0.5c-0.1-0.3,0-0.5,0.3-0.6l63.8-23.2l0.5,1.4L128.5,155z"></path>
    <path fill="#3B8E46" d="M114.1,130.8c-14.9,9-28.7,8-33.8,6.4c-0.7-5.3,0.8-19,12.3-32.1c11.6-13.3,27.2-9.8,33.7-6.5 C128.4,105.6,129.2,121.7,114.1,130.8z"></path>
    <path fill="#3B8E46" d="M81.3,137.3c-0.2,0.2-0.5,0.1-0.7-0.1l-0.3-0.4c-0.2-0.2-0.1-0.5,0.1-0.7l52-43.6l0.9,1.1L81.3,137.3z"></path>
  </g>
  <path stroke="#3D9448" stroke-width="5" d="M273.4,392c8.3-56,6.8-184.5-66-250.5c-26-23.2-89.9-66.7-137.5-55.5"></path>
</svg>
