<?xml version="1.0" encoding="UTF-8"?>
<svg xmlns="http://www.w3.org/2000/svg" fill="none" x="0px" y="0px" viewBox="0 0 332.7 392" style="enable-background:new 0 0 332.7 392;">
  <g>
    <path fill="#3B8E46" d="M93.5,322.2c12.8-10.4,16.5-23,16.7-28.1c-4.5-2.3-17.2-5.4-32.6,0.5c-15.6,6-17.6,21.1-16.7,27.9 C66.4,326.8,80.5,332.7,93.5,322.2z"></path>
    <path fill="#3B8E46" d="M109.9,295.1c0.2-0.1,0.3-0.4,0.2-0.6l-0.2-0.4c-0.1-0.2-0.4-0.3-0.6-0.2l-55.8,32.2l0.7,1.2L109.9,295.1z"></path>
    <path fill="#3B8E46" d="M117.2,252.5c15.2-17.5,17.2-35.8,16.3-42.9c-6.9-2.1-25.1-3.3-45,8.7c-20.1,12.1-19.2,33.4-16.3,42.7 C80.8,265.5,101.8,270.2,117.2,252.5z"></path>
    <path fill="#3B8E46" d="M133.2,211c0.3-0.2,0.3-0.6,0.1-0.9l-0.4-0.5c-0.2-0.3-0.6-0.3-0.9-0.1l-69.3,58.1l1.3,1.5L133.2,211z"></path>
    <path fill="#3B8E46" d="M143.9,194.7c20.3-7,30.3-20.7,32.9-26.9c-4.5-4.9-18.6-14.3-40.1-13.9c-21.7,0.4-30.9,17.9-32.8,26.7 C108.7,188.2,123.3,201.7,143.9,194.7z"></path>
    <path fill="#3B8E46" d="M175.9,168.9c0.3-0.1,0.5-0.4,0.5-0.7l-0.1-0.6c-0.1-0.3-0.4-0.6-0.7-0.5l-82.4,14.5l0.3,1.8L175.9,168.9z"></path>
    <path fill="#3B8E46" d="M15.2,357.6c-12-13.8-13.5-28.2-12.8-33.8c5.4-1.7,19.8-2.6,35.4,6.8c15.8,9.5,15.1,26.3,12.8,33.6 C43.8,367.8,27.3,371.5,15.2,357.6z"></path>
    <path fill="#3B8E46" d="M2.6,325c-0.2-0.2-0.2-0.5-0.1-0.7l0.3-0.4c0.2-0.2,0.5-0.2,0.7-0.1l54.5,45.7l-1,1.2L2.6,325z"></path>
    <path fill="#3B8E46" d="M10,272.9c-12-19.9-10.7-38.3-8.6-45.1c7.1-0.9,25.3,1.1,42.8,16.4c17.7,15.4,13.1,36.3,8.6,44.9 C43.6,292.1,22.1,293.1,10,272.9z"></path>
    <path fill="#3B8E46" d="M1.4,229.3c-0.2-0.3-0.2-0.7,0.1-0.9l0.5-0.4c0.3-0.2,0.7-0.2,0.9,0.1L61,297.3l-1.5,1.3L1.4,229.3z"></path>
    <path fill="#3B8E46" d="M23.1,185.9c-13-21.5-11.6-41.5-9.3-48.9c7.7-1,27.4,1.2,46.4,17.7c19.2,16.7,14.2,39.3,9.3,48.7 C59.5,206.6,36.3,207.7,23.1,185.9z"></path>
    <path fill="#3B8E46" d="M13.8,138.6c-0.3-0.3-0.2-0.7,0.1-1l0.5-0.5c0.3-0.3,0.7-0.2,1,0.1l63,75.1l-1.6,1.4L13.8,138.6z"></path>
    <path fill="#3B8E46" d="M85.3,128.3c-9.1-15-8.1-28.9-6.5-34.1c5.4-0.7,19.2,0.9,32.4,12.4c13.4,11.7,9.9,27.4,6.5,34 C110.7,142.8,94.5,143.5,85.3,128.3z"></path>
    <path fill="#3B8E46" d="M78.8,95.3c-0.2-0.2-0.1-0.5,0.1-0.7l0.4-0.3c0.2-0.2,0.5-0.1,0.7,0.1l44,52.4l-1.1,1L78.8,95.3z"></path>
    <path fill="#3B8E46" d="M123.9,90.5c-3.4-17.2,2.3-29.9,5.6-34.3c5.3,1.2,17.7,7.4,26.2,22.7c8.6,15.5-0.1,29.2-5.5,34.1 C142.8,112.8,127.3,107.9,123.9,90.5z"></path>
    <path fill="#3B8E46" d="M129.1,57.3c-0.1-0.3,0-0.5,0.3-0.6l0.5-0.2c0.3-0.1,0.5,0,0.6,0.3l23.4,64.3l-1.4,0.5L129.1,57.3z"></path>
    <path fill="#3B8E46" d="M160.2,51.4c3.6-23,16.5-36.3,22.5-40.2c6.1,3.9,18.8,17.2,22.4,40.2c3.7,23.3-13.3,36.4-22.4,40.1 C173.7,87.8,156.5,74.7,160.2,51.4z"></path>
    <path fill="#3B8E46" d="M181.7,12.3c0-0.4,0.3-0.7,0.7-0.7h0.7c0.4,0,0.7,0.3,0.7,0.7v90.9h-2V12.3z"></path>
    <path fill="#3B8E46" d="M221.5,30.1C232.7,9.7,249.4,1.6,256.4,0c4.4,5.7,11.7,22.6,7.3,45.5c-4.5,23.1-25,29.6-34.7,30 C221.7,68.9,210.1,50.7,221.5,30.1z"></path>
    <path fill="#3B8E46" d="M255.1,0.7c0.1-0.3,0.5-0.5,0.8-0.4l0.6,0.2c0.3,0.1,0.5,0.5,0.4,0.8l-31.1,85.4l-1.9-0.7L255.1,0.7z"></path>
    <path fill="#3B8E46" d="M292.4,61.5c23,3.6,36.3,16.5,40.2,22.5c-3.9,6.1-17.2,18.8-40.2,22.4c-23.3,3.7-36.4-13.3-40.1-22.4 C256,75,269.1,57.8,292.4,61.5z"></path>
    <path fill="#3B8E46" d="M331.6,83.1c0.4,0,0.7,0.3,0.7,0.7v0.7c0,0.4-0.3,0.7-0.7,0.7h-90.9v-2H331.6z"></path>
    <path fill="#3B8E46" d="M171.1,160.1c17.1,3.3,29.7-2.3,34-5.5c-1.2-5.3-7.3-17.6-22.5-26c-15.4-8.5-28.9,0.1-33.9,5.5 C149,141.3,153.8,156.7,171.1,160.1z"></path>
    <path fill="#3B8E46" d="M204.1,155c0.3,0.1,0.5,0,0.6-0.3l0.2-0.5c0.1-0.3,0-0.5-0.3-0.6l-63.8-23.2l-0.5,1.4L204.1,155z"></path>
    <path fill="#3B8E46" d="M218.5,130.8c14.9,9,28.7,8,33.8,6.4c0.7-5.3-0.8-19-12.3-32.1c-11.6-13.3-27.2-9.8-33.7-6.5 C204.2,105.6,203.4,121.7,218.5,130.8z"></path>
    <path fill="#3B8E46" d="M251.3,137.3c0.2,0.2,0.5,0.1,0.7-0.1l0.3-0.4c0.2-0.2,0.1-0.5-0.1-0.7l-52-43.6l-0.9,1.1L251.3,137.3z"></path>
  </g>
  <path stroke="#3D9448" stroke-width="5" d="M59.2,392c-8.3-56-6.8-184.5,66-250.5c26-23.2,89.9-66.7,137.5-55.5"></path>
</svg>
