<?xml version="1.0" encoding="UTF-8"?>
<svg xmlns="http://www.w3.org/2000/svg" fill="none" width="276" height="272" viewBox="0 0 276 272">
  <g fill="#3D9448">
    <path d="M182.381 191.332C214.988 197.706 239.102 186.99 247.294 180.755C245.024 170.719 233.364 147.217 204.289 131.141C174.856 114.867 149.035 131.251 139.649 141.556C140.214 155.487 149.374 184.88 182.381 191.332Z"></path>
    <path d="M245.325 181.537C245.812 181.714 246.351 181.463 246.528 180.975L246.849 180.093C247.027 179.606 246.775 179.067 246.288 178.89L124.53 134.573L123.566 137.22L245.325 181.537Z"></path>
    <path d="M136.294 64.7089C157.175 38.8668 182.536 31.5757 192.82 31.0862C197.531 40.2331 203.706 65.7314 191.767 96.7361C179.681 128.122 149.369 132.168 135.555 130.307C127.033 119.272 115.156 90.8681 136.294 64.7089Z"></path>
    <path d="M190.808 31.7533C191.068 31.3042 191.642 31.1503 192.091 31.4096L192.904 31.8791C193.353 32.1384 193.507 32.7126 193.248 33.1617L128.461 145.375L126.022 143.966L190.808 31.7533Z"></path>
  </g>
  <g fill="#408349">
    <path d="M182.313 169.355C188.687 201.962 177.971 226.076 171.736 234.269C161.7 231.998 138.198 220.339 122.122 191.263C105.848 161.831 122.232 136.01 132.537 126.623C146.468 127.189 175.861 136.348 182.313 169.355Z"></path>
    <path d="M172.518 232.299C172.695 232.786 172.444 233.325 171.956 233.503L171.074 233.824C170.587 234.001 170.048 233.75 169.871 233.263L125.554 111.504L128.201 110.541L172.518 232.299Z"></path>
    <path d="M89.697 103.006C83.3232 70.399 94.0393 46.2851 100.275 38.0925C110.31 40.3631 133.812 52.0226 149.889 81.098C166.163 110.53 149.778 136.352 139.473 145.738C125.542 145.173 96.1491 136.013 89.697 103.006Z"></path>
    <path d="M99.4926 40.0622C99.3153 39.575 99.5665 39.0362 100.054 38.8588L100.936 38.5377C101.423 38.3603 101.962 38.6116 102.14 39.0989L146.456 160.857L143.809 161.821L99.4926 40.0622Z"></path>
  </g>
  <g fill="#3B8E46">
    <path d="M165.897 86.5309C198.504 80.1571 222.618 90.8731 230.81 97.1085C228.54 107.144 216.88 130.646 187.805 146.723C158.373 162.997 132.551 146.612 123.165 136.307C123.73 122.376 132.89 92.983 165.897 86.5309Z"></path>
    <path d="M228.841 96.3265C229.328 96.1491 229.867 96.4004 230.044 96.8877L230.365 97.77C230.543 98.2573 230.291 98.7961 229.804 98.9734L108.046 143.29L107.082 140.643L228.841 96.3265Z"></path>
    <path d="M78.4303 121.129C49.3549 137.206 37.7707 160.915 35.5028 170.958C43.6927 177.186 67.7313 187.695 100.338 181.321C133.346 174.869 142.594 145.72 143.16 131.792C133.773 121.484 107.863 104.855 78.4303 121.129Z"></path>
    <path d="M36.5091 169.093C36.0218 169.27 35.7706 169.809 35.9479 170.296L36.2691 171.178C36.4464 171.666 36.9852 171.917 37.4725 171.74L159.231 127.423L158.267 124.776L36.5091 169.093Z"></path>
  </g>
  <g fill="#3D9448">
    <path d="M143.582 205.454C122.701 231.296 97.3405 238.587 87.0567 239.076C82.3456 229.93 76.1704 204.431 88.1095 173.426C100.195 142.041 130.507 137.995 144.322 139.855C152.843 150.89 164.72 179.294 143.582 205.454Z"></path>
    <path d="M89.0682 238.409C88.809 238.858 88.2347 239.012 87.7856 238.753L86.9725 238.283C86.5234 238.024 86.3695 237.45 86.6288 237.001L151.415 124.788L153.855 126.196L89.0682 238.409Z"></path>
    <path d="M95.0542 79.7189C62.4472 73.345 38.3333 84.0611 30.1407 90.2965C32.4113 100.332 44.0708 123.834 73.1462 139.911C102.579 156.185 128.4 139.8 137.786 129.495C137.221 115.564 128.061 86.171 95.0542 79.7189Z"></path>
    <path d="M32.1105 89.5145C31.6232 89.3371 31.0844 89.5884 30.907 90.0757L30.5859 90.958C30.4085 91.4453 30.6598 91.9841 31.1471 92.1614L152.905 136.478L153.869 133.831L32.1105 89.5145Z"></path>
  </g>
  <circle fill="#D44056" cx="132.986" cy="135.06" r="27.2738" transform="rotate(70 132.986 135.06)"></circle>
</svg>
